<svg xmlns="http://www.w3.org/2000/svg" viewBox="0 0 1700 1966" width="1700" height="1966" xml:space="preserve" font-family="system-ui,-apple-system,&#39;Segoe UI&#39;,Roboto,Helvetica,Arial,sans-serif"><defs><clipPath id="abar0"><rect x="371.0" y="209.0" width="13.0" height="174.0"/></clipPath><clipPath id="abar1"><rect x="371.0" y="397.0" width="13.0" height="174.0"/></clipPath><clipPath id="abar2"><rect x="371.0" y="585.0" width="13.0" height="174.0"/></clipPath><clipPath id="abar3"><rect x="371.0" y="773.0" width="13.0" height="174.0"/></clipPath><clipPath id="abar4"><rect x="371.0" y="961.0" width="13.0" height="174.0"/></clipPath><clipPath id="abar5"><rect x="371.0" y="1149.0" width="13.0" height="236.0"/></clipPath><clipPath id="abar6"><rect x="371.0" y="1399.0" width="13.0" height="174.0"/></clipPath><clipPath id="abar7"><rect x="371.0" y="1587.0" width="13.0" height="112.0"/></clipPath><clipPath id="abar8"><rect x="47.0" y="1743.0" width="8.0" height="54.0"/></clipPath><clipPath id="abar9"><rect x="585.7" y="1743.0" width="8.0" height="54.0"/></clipPath><clipPath id="abar10"><rect x="1124.3" y="1743.0" width="8.0" height="54.0"/></clipPath><clipPath id="abar11"><rect x="47.0" y="1807.0" width="8.0" height="54.0"/></clipPath><clipPath id="abar12"><rect x="585.7" y="1807.0" width="8.0" height="54.0"/></clipPath><clipPath id="abar13"><rect x="1124.3" y="1807.0" width="8.0" height="54.0"/></clipPath><clipPath id="abar14"><rect x="47.0" y="1871.0" width="8.0" height="54.0"/></clipPath></defs><style>@media(prefers-color-scheme:dark){[fill="#f6f6f3"]{fill:#1b1b18}[stroke="#f6f6f3"]{stroke:#1b1b18}[fill="#6c6c73"]{fill:#898990}[stroke="#6c6c73"]{stroke:#898990}[fill="#1c1c22"]{fill:#dddde3}[stroke="#1c1c22"]{stroke:#dddde3}[fill="#faf3e4"]{fill:#544118}[stroke="#faf3e4"]{stroke:#544118}[fill="#e6d3a6"]{fill:#e2c98e}[stroke="#e6d3a6"]{stroke:#e2c98e}[fill="#8a6410"]{fill:#ecb02d}[stroke="#8a6410"]{stroke:#ecb02d}[fill="#fdfaf1"]{fill:#4d4016}[stroke="#fdfaf1"]{stroke:#4d4016}[fill="#eef6f1"]{fill:#244530}[stroke="#eef6f1"]{stroke:#244530}[fill="#c2ddcd"]{fill:#325942}[stroke="#c2ddcd"]{stroke:#325942}[fill="#1f7a49"]{fill:#45d487}[stroke="#1f7a49"]{stroke:#45d487}[fill="#f6fbf8"]{fill:#1e442d}[stroke="#f6fbf8"]{stroke:#1e442d}[fill="#eef2fb"]{fill:#17284f}[stroke="#eef2fb"]{stroke:#17284f}[fill="#cdd8f0"]{fill:#1d3260}[stroke="#cdd8f0"]{stroke:#1d3260}[fill="#2f5fd0"]{fill:#7798e3}[stroke="#2f5fd0"]{stroke:#7798e3}[fill="#f8faff"]{fill:#15244a}[stroke="#f8faff"]{stroke:#15244a}[fill="#eeeeec"]{fill:#1f1f1c}[stroke="#eeeeec"]{stroke:#1f1f1c}[fill="#dad9d4"]{fill:#2b2a26}[stroke="#dad9d4"]{stroke:#2b2a26}[fill="#5a5a62"]{fill:#909099}[stroke="#5a5a62"]{stroke:#909099}[fill="#fafaf8"]{fill:#191916}[stroke="#fafaf8"]{stroke:#191916}[fill="#b9932e"]{fill:#ddbc66}[stroke="#b9932e"]{stroke:#ddbc66}[fill="#9a7a2e"]{fill:#d0ab54}[stroke="#9a7a2e"]{stroke:#d0ab54}[fill="#4f8a68"]{fill:#7eb796}[stroke="#4f8a68"]{stroke:#7eb796}[fill="#3f7a5a"]{fill:#66b389}[stroke="#3f7a5a"]{stroke:#66b389}[fill="#ffffff"]{fill:#141414}[stroke="#ffffff"]{stroke:#141414}[fill="#e2e2de"]{fill:#262622}[stroke="#e2e2de"]{stroke:#262622}}</style><rect x="0" y="0" width="1700" height="1966" fill="#f6f6f3"></rect><text x="48" y="76" font-size="16" fill="#6c6c73" font-family="ui-monospace,SFMono-Regular,Menlo,Consolas,monospace" letter-spacing="2.5px">REFPLAT · REFERENCE INTERNAL DEVELOPER PLATFORM ON AWS</text><text x="48" y="128" font-size="44" fill="#1c1c22" font-weight="600" letter-spacing="-0.6px">Architecture at a Glance</text><text x="48" y="162" font-size="18" fill="#6c6c73">Read bottom-up: cloud foundation → cluster → declarative control plane → tenancy → agents → delivery → edge.</text><text x="48" y="188" font-size="18" fill="#6c6c73">Security/Compliance and Observability span every layer; a data &amp; resilience strip underpins it. Everything is git-driven and reconciled.</text><rect x="372" y="210" width="956" height="172" rx="14" fill="#faf3e4" stroke="#e6d3a6" stroke-width="1"></rect><rect x="373.3" y="211.3" width="953.5" height="169.5" rx="12.8" fill="none" stroke="#8a6410" stroke-width="2.5" clip-path="url(#abar0)"></rect><text x="392" y="237" font-size="14" fill="#8a6410" font-weight="600" font-family="ui-monospace,SFMono-Regular,Menlo,Consolas,monospace" letter-spacing="0.5px">7 · EDGE — INGRESS</text><rect x="392" y="252" width="200.5" height="52" rx="9" fill="#fdfaf1" stroke="#e6d3a6" stroke-width="1"></rect><text x="405" y="274" font-size="15" fill="#1c1c22" font-weight="600">Cilium Gateway API</text><text x="405" y="293" font-size="12.5" fill="#6c6c73">HTTPRoute → Service → pod</text><rect x="602.5" y="252" width="212" height="52" rx="9" fill="#fdfaf1" stroke="#e6d3a6" stroke-width="1"></rect><text x="615.5" y="274" font-size="15" fill="#1c1c22" font-weight="600">external + internal NLB</text><text x="615.5" y="293" font-size="12.5" fill="#6c6c73">Tailscale-only internal</text><rect x="824.5" y="252" width="221.20000000000002" height="52" rx="9" fill="#fdfaf1" stroke="#e6d3a6" stroke-width="1"></rect><text x="837.5" y="274" font-size="15" fill="#1c1c22" font-weight="600">TLS</text><text x="837.5" y="293" font-size="12.5" fill="#6c6c73">cert-manager · Let’s Encrypt</text><rect x="1055.7" y="252" width="159.1" height="52" rx="9" fill="#fdfaf1" stroke="#e6d3a6" stroke-width="1"></rect><text x="1068.7" y="274" font-size="15" fill="#1c1c22" font-weight="600">external-dns</text><text x="1068.7" y="293" font-size="12.5" fill="#6c6c73">manages DNS records</text><rect x="392" y="314" width="235" height="52" rx="9" fill="#fdfaf1" stroke="#e6d3a6" stroke-width="1"></rect><text x="405" y="336" font-size="15" fill="#1c1c22" font-weight="600">WAF + DAST</text><text x="405" y="355" font-size="12.5" fill="#6c6c73">edge-first · in CI  (emerging)</text><rect x="372" y="398" width="956" height="172" rx="14" fill="#eef6f1" stroke="#c2ddcd" stroke-width="1"></rect><rect x="373.3" y="399.3" width="953.5" height="169.5" rx="12.8" fill="none" stroke="#1f7a49" stroke-width="2.5" clip-path="url(#abar1)"></rect><text x="392" y="425" font-size="14" fill="#1f7a49" font-weight="600" font-family="ui-monospace,SFMono-Regular,Menlo,Consolas,monospace" letter-spacing="0.5px">6 · DELIVERY &amp; DX — THE PAVED ROAD</text><rect x="392" y="440" width="255.70000000000002" height="52" rx="9" fill="#f6fbf8" stroke="#c2ddcd" stroke-width="1"></rect><text x="405" y="462" font-size="15" fill="#1c1c22" font-weight="600">Backstage portal</text><text x="405" y="481" font-size="12.5" fill="#6c6c73">golden paths · TechDocs · catalog</text><rect x="657.7" y="440" width="235" height="52" rx="9" fill="#f6fbf8" stroke="#c2ddcd" stroke-width="1"></rect><text x="670.7" y="462" font-size="15" fill="#1c1c22" font-weight="600">Trusted CI on ARC</text><text x="670.7" y="481" font-size="12.5" fill="#6c6c73">self-hosted runners on-cluster</text><rect x="902.7" y="440" width="221.20000000000002" height="52" rx="9" fill="#f6fbf8" stroke="#c2ddcd" stroke-width="1"></rect><text x="915.7" y="462" font-size="15" fill="#1c1c22" font-weight="600">keyless cosign + SLSA-L3</text><text x="915.7" y="481" font-size="12.5" fill="#6c6c73">GitHub OIDC · no stored keys</text><rect x="392" y="502" width="283.3" height="52" rx="9" fill="#f6fbf8" stroke="#c2ddcd" stroke-width="1"></rect><text x="405" y="524" font-size="15" fill="#1c1c22" font-weight="600">Promotion ladder</text><text x="405" y="543" font-size="12.5" fill="#6c6c73">dev→test→staging→prod · digest-pinned</text><rect x="685.3" y="502" width="255.70000000000002" height="52" rx="9" fill="#f6fbf8" stroke="#c2ddcd" stroke-width="1"></rect><text x="698.3" y="524" font-size="15" fill="#1c1c22" font-weight="600">Platform-service delivery</text><text x="698.3" y="543" font-size="12.5" fill="#6c6c73">platform svcs + agents, same road</text><rect x="372" y="586" width="956" height="172" rx="14" fill="#eef2fb" stroke="#cdd8f0" stroke-width="1"></rect><rect x="373.3" y="587.3" width="953.5" height="169.5" rx="12.8" fill="none" stroke="#2f5fd0" stroke-width="2.5" clip-path="url(#abar2)"></rect><text x="392" y="613" font-size="14" fill="#2f5fd0" font-weight="600" font-family="ui-monospace,SFMono-Regular,Menlo,Consolas,monospace" letter-spacing="0.5px">5 · AGENTIC — AGENTS AS GOVERNED WORKLOADS</text><rect x="392" y="628" width="297.1" height="52" rx="9" fill="#f8faff" stroke="#cdd8f0" stroke-width="1"></rect><text x="405" y="650" font-size="15" fill="#1c1c22" font-weight="600">XAgent runtime</text><text x="405" y="669" font-size="12.5" fill="#6c6c73">claim → governed like a tenant workload</text><rect x="699.1" y="628" width="204" height="52" rx="9" fill="#f8faff" stroke="#cdd8f0" stroke-width="1"></rect><text x="712.1" y="650" font-size="15" fill="#1c1c22" font-weight="600">envelope + kill-switch</text><text x="712.1" y="669" font-size="12.5" fill="#6c6c73">Kyverno · Pod Identity</text><rect x="913.1" y="628" width="152.2" height="52" rx="9" fill="#f8faff" stroke="#cdd8f0" stroke-width="1"></rect><text x="926.1" y="650" font-size="15" fill="#1c1c22" font-weight="600">Amazon Bedrock</text><text x="926.1" y="669" font-size="12.5" fill="#6c6c73">models per-account</text><rect x="392" y="690" width="269.5" height="52" rx="9" fill="#f8faff" stroke="#cdd8f0" stroke-width="1"></rect><text x="405" y="712" font-size="15" fill="#1c1c22" font-weight="600">autonomy ladder</text><text x="405" y="731" font-size="12.5" fill="#6c6c73">suggest → gated → auto · eval-gated</text><rect x="671.5" y="690" width="255.70000000000002" height="52" rx="9" fill="#f8faff" stroke="#cdd8f0" stroke-width="1"></rect><text x="684.5" y="712" font-size="15" fill="#1c1c22" font-weight="600">triage copilot</text><text x="684.5" y="731" font-size="12.5" fill="#6c6c73">autonomous on hub · owner-routing</text><rect x="937.2" y="690" width="180" height="52" rx="9" fill="#f8faff" stroke="#cdd8f0" stroke-width="1"></rect><text x="950.2" y="712" font-size="15" fill="#1c1c22" font-weight="600">GenAI observability</text><text x="950.2" y="731" font-size="12.5" fill="#6c6c73">OTel + GenAI semconv</text><rect x="372" y="774" width="956" height="172" rx="14" fill="#eef2fb" stroke="#cdd8f0" stroke-width="1"></rect><rect x="373.3" y="775.3" width="953.5" height="169.5" rx="12.8" fill="none" stroke="#2f5fd0" stroke-width="2.5" clip-path="url(#abar3)"></rect><text x="392" y="801" font-size="14" fill="#2f5fd0" font-weight="600" font-family="ui-monospace,SFMono-Regular,Menlo,Consolas,monospace" letter-spacing="0.5px">4 · TENANCY — TEAM › PRODUCT › SERVICE › ENV</text><rect x="392" y="816" width="310.90000000000003" height="52" rx="9" fill="#f8faff" stroke="#cdd8f0" stroke-width="1"></rect><text x="405" y="838" font-size="15" fill="#1c1c22" font-weight="600">Team CR</text><text x="405" y="857" font-size="12.5" fill="#6c6c73">envelope: tiers · stages · quota · budget</text><rect x="712.9000000000001" y="816" width="276.4" height="52" rx="9" fill="#f8faff" stroke="#cdd8f0" stroke-width="1"></rect><text x="725.9000000000001" y="838" font-size="15" fill="#1c1c22" font-weight="600">Product registry</text><text x="725.9000000000001" y="857" font-size="12.5" fill="#6c6c73">one repo = supply-chain trust anchor</text><rect x="999.3000000000001" y="816" width="221.20000000000002" height="52" rx="9" fill="#f8faff" stroke="#cdd8f0" stroke-width="1"></rect><text x="1012.3000000000001" y="838" font-size="15" fill="#1c1c22" font-weight="600">XEnvironment claims</text><text x="1012.3000000000001" y="857" font-size="12.5" fill="#6c6c73">ownership tree × deploy grid</text><rect x="392" y="878" width="262.6" height="52" rx="9" fill="#f8faff" stroke="#cdd8f0" stroke-width="1"></rect><text x="405" y="900" font-size="15" fill="#1c1c22" font-weight="600">Per-Product derivations</text><text x="405" y="919" font-size="12.5" fill="#6c6c73">OIDC role · verify · apps · owners</text><rect x="664.6" y="878" width="124.60000000000001" height="52" rx="9" fill="#f8faff" stroke="#cdd8f0" stroke-width="1"></rect><text x="677.6" y="900" font-size="15" fill="#1c1c22" font-weight="600">Namespaces</text><text x="677.6" y="919" font-size="12.5" fill="#6c6c73">alpha-shop-prod</text><rect x="372" y="962" width="956" height="172" rx="14" fill="#eef6f1" stroke="#c2ddcd" stroke-width="1"></rect><rect x="373.3" y="963.3" width="953.5" height="169.5" rx="12.8" fill="none" stroke="#1f7a49" stroke-width="2.5" clip-path="url(#abar4)"></rect><text x="392" y="989" font-size="14" fill="#1f7a49" font-weight="600" font-family="ui-monospace,SFMono-Regular,Menlo,Consolas,monospace" letter-spacing="0.5px">3 · CONTROL PLANE — DECLARATIVE, GIT-DRIVEN</text><rect x="392" y="1004" width="331.6" height="52" rx="9" fill="#f6fbf8" stroke="#c2ddcd" stroke-width="1"></rect><text x="405" y="1026" font-size="15" fill="#1c1c22" font-weight="600">Crossplane · Environment API</text><text x="405" y="1045" font-size="12.5" fill="#6c6c73">XEnvironment claim → Composition → footprint</text><rect x="733.6" y="1004" width="276.4" height="52" rx="9" fill="#f6fbf8" stroke="#c2ddcd" stroke-width="1"></rect><text x="746.6" y="1026" font-size="15" fill="#1c1c22" font-weight="600">self-service resources</text><text x="746.6" y="1045" font-size="12.5" fill="#6c6c73">S3 · SQS · SNS · DynamoDB (governed)</text><rect x="392" y="1066" width="297.1" height="52" rx="9" fill="#f6fbf8" stroke="#c2ddcd" stroke-width="1"></rect><text x="405" y="1088" font-size="15" fill="#1c1c22" font-weight="600">Argo CD</text><text x="405" y="1107" font-size="12.5" fill="#6c6c73">GitOps · ApplicationSets · Keycloak SSO</text><rect x="699.1" y="1066" width="331.6" height="52" rx="9" fill="#f6fbf8" stroke="#c2ddcd" stroke-width="1"></rect><text x="712.1" y="1088" font-size="15" fill="#1c1c22" font-weight="600">Kyverno</text><text x="712.1" y="1107" font-size="12.5" fill="#6c6c73">registry scope · cosign/SLSA · PSA · PDB gen</text><rect x="1040.7" y="1066" width="262.6" height="52" rx="9" fill="#f6fbf8" stroke="#c2ddcd" stroke-width="1"></rect><text x="1053.7" y="1088" font-size="15" fill="#1c1c22" font-weight="600">Argo Rollouts</text><text x="1053.7" y="1107" font-size="12.5" fill="#6c6c73">canary / blue-green · metric-gated</text><rect x="372" y="1150" width="956" height="234" rx="14" fill="#eef2fb" stroke="#cdd8f0" stroke-width="1"></rect><rect x="373.3" y="1151.3" width="953.5" height="231.5" rx="12.8" fill="none" stroke="#2f5fd0" stroke-width="2.5" clip-path="url(#abar5)"></rect><text x="392" y="1177" font-size="14" fill="#2f5fd0" font-weight="600" font-family="ui-monospace,SFMono-Regular,Menlo,Consolas,monospace" letter-spacing="0.5px">2 · CLUSTER — KUBERNETES RUNTIME</text><rect x="392" y="1192" width="138.4" height="52" rx="9" fill="#f8faff" stroke="#cdd8f0" stroke-width="1"></rect><text x="405" y="1214" font-size="15" fill="#1c1c22" font-weight="600">Amazon EKS</text><text x="405" y="1233" font-size="12.5" fill="#6c6c73">private-only API</text><rect x="540.4" y="1192" width="212" height="52" rx="9" fill="#f8faff" stroke="#cdd8f0" stroke-width="1"></rect><text x="553.4" y="1214" font-size="15" fill="#1c1c22" font-weight="600">Tailscale subnet router</text><text x="553.4" y="1233" font-size="12.5" fill="#6c6c73">SSM bastion fallback</text><rect x="762.4" y="1192" width="338.5" height="52" rx="9" fill="#f8faff" stroke="#cdd8f0" stroke-width="1"></rect><text x="775.4" y="1214" font-size="15" fill="#1c1c22" font-weight="600">Cilium CNI</text><text x="775.4" y="1233" font-size="12.5" fill="#6c6c73">BYOCNI · kube-proxy replacement · Gateway API</text><rect x="392" y="1254" width="241.9" height="52" rx="9" fill="#f8faff" stroke="#cdd8f0" stroke-width="1"></rect><text x="405" y="1276" font-size="15" fill="#1c1c22" font-weight="600">WireGuard</text><text x="405" y="1295" font-size="12.5" fill="#6c6c73">pod-to-pod east-west encryption</text><rect x="643.9" y="1254" width="166" height="52" rx="9" fill="#f8faff" stroke="#cdd8f0" stroke-width="1"></rect><text x="656.9" y="1276" font-size="15" fill="#1c1c22" font-weight="600">SPIRE</text><text x="656.9" y="1295" font-size="12.5" fill="#6c6c73">mutual-auth showcase</text><rect x="819.9" y="1254" width="145.3" height="52" rx="9" fill="#f8faff" stroke="#cdd8f0" stroke-width="1"></rect><text x="832.9" y="1276" font-size="15" fill="#1c1c22" font-weight="600">Karpenter</text><text x="832.9" y="1295" font-size="12.5" fill="#6c6c73">elastic JIT nodes</text><rect x="975.2" y="1254" width="164" height="52" rx="9" fill="#f8faff" stroke="#cdd8f0" stroke-width="1"></rect><text x="988.2" y="1276" font-size="15" fill="#1c1c22" font-weight="600">system node group</text><text x="988.2" y="1295" font-size="12.5" fill="#6c6c73">always-on floor</text><rect x="392" y="1316" width="166" height="52" rx="9" fill="#f8faff" stroke="#cdd8f0" stroke-width="1"></rect><text x="405" y="1338" font-size="15" fill="#1c1c22" font-weight="600">descheduler</text><text x="405" y="1357" font-size="12.5" fill="#6c6c73">rebalances hot nodes</text><rect x="372" y="1400" width="956" height="172" rx="14" fill="#faf3e4" stroke="#e6d3a6" stroke-width="1"></rect><rect x="373.3" y="1401.3" width="953.5" height="169.5" rx="12.8" fill="none" stroke="#8a6410" stroke-width="2.5" clip-path="url(#abar6)"></rect><text x="392" y="1427" font-size="14" fill="#8a6410" font-weight="600" font-family="ui-monospace,SFMono-Regular,Menlo,Consolas,monospace" letter-spacing="0.5px">1 · FOUNDATION — CLOUD &amp; INFRA-AS-CODE</text><rect x="392" y="1442" width="156" height="52" rx="9" fill="#fdfaf1" stroke="#e6d3a6" stroke-width="1"></rect><text x="405" y="1464" font-size="15" fill="#1c1c22" font-weight="600">AWS Organization</text><text x="405" y="1483" font-size="12.5" fill="#6c6c73">5 accounts · 2 OUs</text><rect x="558" y="1442" width="241.9" height="52" rx="9" fill="#fdfaf1" stroke="#e6d3a6" stroke-width="1"></rect><text x="571" y="1464" font-size="15" fill="#1c1c22" font-weight="600">Org SCPs</text><text x="571" y="1483" font-size="12.5" fill="#6c6c73">ceiling · effective = SCP ∩ IAM</text><rect x="809.9" y="1442" width="241.9" height="52" rx="9" fill="#fdfaf1" stroke="#e6d3a6" stroke-width="1"></rect><text x="822.9" y="1464" font-size="15" fill="#1c1c22" font-weight="600">OpenTofu + Terragrunt</text><text x="822.9" y="1483" font-size="12.5" fill="#6c6c73">config cascade — narrowest wins</text><rect x="1061.8" y="1442" width="180" height="52" rx="9" fill="#fdfaf1" stroke="#e6d3a6" stroke-width="1"></rect><text x="1074.8" y="1464" font-size="15" fill="#1c1c22" font-weight="600">SOPS secrets in git</text><text x="1074.8" y="1483" font-size="12.5" fill="#6c6c73">decrypted via KMS</text><rect x="392" y="1504" width="166" height="52" rx="9" fill="#fdfaf1" stroke="#e6d3a6" stroke-width="1"></rect><text x="405" y="1526" font-size="15" fill="#1c1c22" font-weight="600">VPC per account</text><text x="405" y="1545" font-size="12.5" fill="#6c6c73">non-overlapping /16s</text><rect x="568" y="1504" width="180" height="52" rx="9" fill="#fdfaf1" stroke="#e6d3a6" stroke-width="1"></rect><text x="581" y="1526" font-size="15" fill="#1c1c22" font-weight="600">Transit Gateway hub</text><text x="581" y="1545" font-size="12.5" fill="#6c6c73">RAM-shared to spokes</text><rect x="758" y="1504" width="193.60000000000002" height="52" rx="9" fill="#fdfaf1" stroke="#e6d3a6" stroke-width="1"></rect><text x="771" y="1526" font-size="15" fill="#1c1c22" font-weight="600">cross-VPC DNS</text><text x="771" y="1545" font-size="12.5" fill="#6c6c73">PHZ + dynamic ENI lookup</text><rect x="961.6" y="1504" width="152.2" height="52" rx="9" fill="#fdfaf1" stroke="#e6d3a6" stroke-width="1"></rect><text x="974.6" y="1526" font-size="15" fill="#1c1c22" font-weight="600">Remote state</text><text x="974.6" y="1545" font-size="12.5" fill="#6c6c73">S3 + DynamoDB lock</text><rect x="372" y="1588" width="956" height="110" rx="14" fill="#eeeeec" stroke="#dad9d4" stroke-width="1"></rect><rect x="373.3" y="1589.3" width="953.5" height="107.5" rx="12.8" fill="none" stroke="#5a5a62" stroke-width="2.5" clip-path="url(#abar7)"></rect><text x="392" y="1615" font-size="14" fill="#5a5a62" font-weight="600" font-family="ui-monospace,SFMono-Regular,Menlo,Consolas,monospace" letter-spacing="0.5px">DATA &amp; RESILIENCE</text><rect x="392" y="1630" width="207.4" height="52" rx="9" fill="#fafaf8" stroke="#dad9d4" stroke-width="1"></rect><text x="405" y="1652" font-size="15" fill="#1c1c22" font-weight="600">CloudNativePG Postgres</text><text x="405" y="1671" font-size="12.5" fill="#6c6c73">Keycloak · Backstage state</text><rect x="609.4" y="1630" width="188" height="52" rx="9" fill="#fafaf8" stroke="#dad9d4" stroke-width="1"></rect><text x="622.4" y="1652" font-size="15" fill="#1c1c22" font-weight="600">Barman Cloud backups</text><text x="622.4" y="1671" font-size="12.5" fill="#6c6c73">→ S3</text><rect x="807.4" y="1630" width="255.70000000000002" height="52" rx="9" fill="#fafaf8" stroke="#dad9d4" stroke-width="1"></rect><text x="820.4" y="1652" font-size="15" fill="#1c1c22" font-weight="600">Reproducible from git</text><text x="820.4" y="1671" font-size="12.5" fill="#6c6c73">teardown / rebuild validated (DR)</text><rect x="48" y="210" width="306" height="1488" rx="14" fill="#eef2fb" stroke="#cdd8f0" stroke-width="1"></rect><text x="66" y="240" font-size="14" fill="#2f5fd0" font-weight="600" font-family="ui-monospace,SFMono-Regular,Menlo,Consolas,monospace" letter-spacing="0.4px">SECURITY, COMPLIANCE &amp; IDENTITY</text><text x="66" y="260" font-size="11.5" fill="#6c6c73" font-family="ui-monospace,SFMono-Regular,Menlo,Consolas,monospace">defense in depth · outer→inner</text><rect x="66" y="278" width="270" height="48" rx="8" fill="#f8faff" stroke="#cdd8f0" stroke-width="1"></rect><text x="78" y="299" font-size="14" fill="#1c1c22" font-weight="600">SCPs</text><text x="78" y="316" font-size="11.5" fill="#6c6c73">cloud guardrails</text><rect x="66" y="335" width="270" height="48" rx="8" fill="#f8faff" stroke="#cdd8f0" stroke-width="1"></rect><text x="78" y="356" font-size="14" fill="#1c1c22" font-weight="600">private network</text><text x="78" y="373" font-size="11.5" fill="#6c6c73">default-deny NetworkPolicy</text><rect x="66" y="392" width="270" height="48" rx="8" fill="#f8faff" stroke="#cdd8f0" stroke-width="1"></rect><text x="78" y="413" font-size="14" fill="#1c1c22" font-weight="600">Kyverno admission</text><text x="78" y="430" font-size="11.5" fill="#6c6c73">cosign · SLSA</text><rect x="66" y="449" width="270" height="48" rx="8" fill="#f8faff" stroke="#cdd8f0" stroke-width="1"></rect><text x="78" y="470" font-size="14" fill="#1c1c22" font-weight="600">Pod Identity</text><text x="78" y="487" font-size="11.5" fill="#6c6c73">deny-set IAM</text><rect x="66" y="506" width="270" height="48" rx="8" fill="#f8faff" stroke="#cdd8f0" stroke-width="1"></rect><text x="78" y="527" font-size="14" fill="#1c1c22" font-weight="600">WireGuard</text><text x="78" y="544" font-size="11.5" fill="#6c6c73">in-transit</text><rect x="66" y="563" width="270" height="48" rx="8" fill="#f8faff" stroke="#cdd8f0" stroke-width="1"></rect><text x="78" y="584" font-size="14" fill="#1c1c22" font-weight="600">Falco</text><text x="78" y="601" font-size="11.5" fill="#6c6c73">runtime detection</text><text x="66" y="640" font-size="11" fill="#2f5fd0" font-weight="600" font-family="ui-monospace,SFMono-Regular,Menlo,Consolas,monospace" letter-spacing="0.4px">IDENTITY</text><rect x="66" y="652" width="270" height="48" rx="8" fill="#f8faff" stroke="#cdd8f0" stroke-width="1"></rect><text x="78" y="673" font-size="14" fill="#1c1c22" font-weight="600">Keycloak</text><text x="78" y="690" font-size="11.5" fill="#6c6c73">app IdP · brokered OIDC</text><rect x="66" y="709" width="270" height="48" rx="8" fill="#f8faff" stroke="#cdd8f0" stroke-width="1"></rect><text x="78" y="730" font-size="14" fill="#1c1c22" font-weight="600">access-as-code</text><text x="78" y="747" font-size="11.5" fill="#6c6c73">workforce dir · temp-power</text><text x="66" y="786" font-size="11" fill="#2f5fd0" font-weight="600" font-family="ui-monospace,SFMono-Regular,Menlo,Consolas,monospace" letter-spacing="0.4px">SECRETS</text><rect x="66" y="798" width="270" height="48" rx="8" fill="#f8faff" stroke="#cdd8f0" stroke-width="1"></rect><text x="78" y="819" font-size="14" fill="#1c1c22" font-weight="600">SOPS</text><text x="78" y="836" font-size="11.5" fill="#6c6c73">config · in git</text><rect x="66" y="855" width="270" height="48" rx="8" fill="#f8faff" stroke="#cdd8f0" stroke-width="1"></rect><text x="78" y="876" font-size="14" fill="#1c1c22" font-weight="600">Secrets Manager</text><text x="78" y="893" font-size="11.5" fill="#6c6c73">runtime · External Secrets</text><text x="66" y="932" font-size="11" fill="#2f5fd0" font-weight="600" font-family="ui-monospace,SFMono-Regular,Menlo,Consolas,monospace" letter-spacing="0.4px">COMPLIANCE &amp; ASSURANCE</text><rect x="66" y="944" width="270" height="48" rx="8" fill="#f8faff" stroke="#cdd8f0" stroke-width="1"></rect><text x="78" y="965" font-size="14" fill="#1c1c22" font-weight="600">Compliance tiers</text><text x="78" y="982" font-size="11.5" fill="#6c6c73">standard / pci / hipaa</text><rect x="66" y="1001" width="270" height="48" rx="8" fill="#f8faff" stroke="#cdd8f0" stroke-width="1"></rect><text x="78" y="1022" font-size="14" fill="#1c1c22" font-weight="600">CIS benchmarks</text><text x="78" y="1039" font-size="11.5" fill="#6c6c73">kube-bench</text><rect x="66" y="1058" width="270" height="48" rx="8" fill="#f8faff" stroke="#cdd8f0" stroke-width="1"></rect><text x="78" y="1079" font-size="14" fill="#1c1c22" font-weight="600">Control evidence</text><text x="78" y="1096" font-size="11.5" fill="#6c6c73">continuous · policy-reporter</text><rect x="66" y="1115" width="270" height="48" rx="8" fill="#f8faff" stroke="#cdd8f0" stroke-width="1"></rect><text x="78" y="1136" font-size="14" fill="#1c1c22" font-weight="600">CloudTrail</text><text x="78" y="1153" font-size="11.5" fill="#6c6c73">audit trail</text><rect x="1346" y="210" width="306" height="1488" rx="14" fill="#eef6f1" stroke="#c2ddcd" stroke-width="1"></rect><text x="1364" y="240" font-size="14" fill="#1f7a49" font-weight="600" font-family="ui-monospace,SFMono-Regular,Menlo,Consolas,monospace" letter-spacing="0.4px">OBSERVABILITY</text><text x="1364" y="260" font-size="11.5" fill="#6c6c73" font-family="ui-monospace,SFMono-Regular,Menlo,Consolas,monospace">LGTM+P · hub + spoke</text><rect x="1364" y="278" width="270" height="48" rx="8" fill="#f6fbf8" stroke="#c2ddcd" stroke-width="1"></rect><text x="1376" y="299" font-size="14" fill="#1c1c22" font-weight="600">Loki</text><text x="1376" y="316" font-size="11.5" fill="#6c6c73">logs</text><rect x="1364" y="335" width="270" height="48" rx="8" fill="#f6fbf8" stroke="#c2ddcd" stroke-width="1"></rect><text x="1376" y="356" font-size="14" fill="#1c1c22" font-weight="600">Grafana</text><text x="1376" y="373" font-size="11.5" fill="#6c6c73">dashboards</text><rect x="1364" y="392" width="270" height="48" rx="8" fill="#f6fbf8" stroke="#c2ddcd" stroke-width="1"></rect><text x="1376" y="413" font-size="14" fill="#1c1c22" font-weight="600">Tempo</text><text x="1376" y="430" font-size="11.5" fill="#6c6c73">traces</text><rect x="1364" y="449" width="270" height="48" rx="8" fill="#f6fbf8" stroke="#c2ddcd" stroke-width="1"></rect><text x="1376" y="470" font-size="14" fill="#1c1c22" font-weight="600">Mimir</text><text x="1376" y="487" font-size="11.5" fill="#6c6c73">metrics</text><rect x="1364" y="506" width="270" height="48" rx="8" fill="#f6fbf8" stroke="#c2ddcd" stroke-width="1"></rect><text x="1376" y="527" font-size="14" fill="#1c1c22" font-weight="600">Pyroscope</text><text x="1376" y="544" font-size="11.5" fill="#6c6c73">profiles</text><rect x="1364" y="563" width="270" height="48" rx="8" fill="#f6fbf8" stroke="#c2ddcd" stroke-width="1"></rect><text x="1376" y="584" font-size="14" fill="#1c1c22" font-weight="600">OpenTelemetry</text><text x="1376" y="601" font-size="11.5" fill="#6c6c73">collection</text><text x="1364" y="640" font-size="11" fill="#1f7a49" font-weight="600" font-family="ui-monospace,SFMono-Regular,Menlo,Consolas,monospace" letter-spacing="0.4px">SIGNALS</text><rect x="1364" y="652" width="270" height="48" rx="8" fill="#f6fbf8" stroke="#c2ddcd" stroke-width="1"></rect><text x="1376" y="673" font-size="14" fill="#1c1c22" font-weight="600">SLOs</text><text x="1376" y="690" font-size="11.5" fill="#6c6c73">burn-rate alerting</text><rect x="1364" y="709" width="270" height="34" rx="8" fill="#f6fbf8" stroke="#c2ddcd" stroke-width="1"></rect><text x="1376" y="732" font-size="14" fill="#1c1c22" font-weight="600">Cost / FinOps</text><rect x="1364" y="752" width="270" height="34" rx="8" fill="#f6fbf8" stroke="#c2ddcd" stroke-width="1"></rect><text x="1376" y="775" font-size="14" fill="#1c1c22" font-weight="600">Per-team dashboards</text><rect x="1364" y="795" width="270" height="48" rx="8" fill="#f6fbf8" stroke="#c2ddcd" stroke-width="1"></rect><text x="1376" y="816" font-size="14" fill="#1c1c22" font-weight="600">owner-routing</text><text x="1376" y="833" font-size="11.5" fill="#6c6c73">triage agent pages team</text><line x1="360" y1="1690" x2="360" y2="218" stroke="#b9932e" stroke-width="1.8" stroke-dasharray="5 5"></line><path d="M360 214 L355 224 L365 224 Z" fill="#b9932e"></path><text x="354" y="954" font-size="11" fill="#9a7a2e" text-anchor="middle" font-family="ui-monospace,SFMono-Regular,Menlo,Consolas,monospace" transform="rotate(-90 354 954)">GitOps reconcile ↻</text><line x1="1340" y1="218" x2="1340" y2="1690" stroke="#4f8a68" stroke-width="1.8" stroke-dasharray="5 5"></line><path d="M1340 1694 L1335 1684 L1345 1684 Z" fill="#4f8a68"></path><text x="1346" y="954" font-size="11" fill="#3f7a5a" text-anchor="middle" font-family="ui-monospace,SFMono-Regular,Menlo,Consolas,monospace" transform="rotate(-90 1346 954)">telemetry →</text><text x="48" y="1728" font-size="13" fill="#6c6c73" font-family="ui-monospace,SFMono-Regular,Menlo,Consolas,monospace" letter-spacing="0.8px">KEY FLOWS</text><rect x="48" y="1744" width="526.6666666666666" height="52" rx="9" fill="#ffffff" stroke="#e2e2de" stroke-width="1"></rect><rect x="49.3" y="1745.3" width="524.2" height="49.5" rx="7.8" fill="none" stroke="#1f7a49" stroke-width="2.5" clip-path="url(#abar8)"></rect><text x="64" y="1766" font-size="15" fill="#1c1c22" font-weight="600">GitOps loop</text><text x="64" y="1784" font-size="12" fill="#6c6c73">git claims → Argo CD → Crossplane + Kyverno → envs</text><rect x="586.6666666666666" y="1744" width="526.6666666666666" height="52" rx="9" fill="#ffffff" stroke="#e2e2de" stroke-width="1"></rect><rect x="588.0" y="1745.3" width="524.2" height="49.5" rx="7.8" fill="none" stroke="#2f5fd0" stroke-width="2.5" clip-path="url(#abar9)"></rect><text x="602.6666666666666" y="1766" font-size="15" fill="#1c1c22" font-weight="600">Paved road</text><text x="602.6666666666666" y="1784" font-size="12" fill="#6c6c73">dev → Backstage → PR → derived infra materializes</text><rect x="1125.3333333333333" y="1744" width="526.6666666666666" height="52" rx="9" fill="#ffffff" stroke="#e2e2de" stroke-width="1"></rect><rect x="1126.5" y="1745.3" width="524.2" height="49.5" rx="7.8" fill="none" stroke="#8a6410" stroke-width="2.5" clip-path="url(#abar10)"></rect><text x="1141.3333333333333" y="1766" font-size="15" fill="#1c1c22" font-weight="600">Supply chain</text><text x="1141.3333333333333" y="1784" font-size="12" fill="#6c6c73">self-hosted CI → signed + attested → Kyverno verify</text><rect x="48" y="1808" width="526.6666666666666" height="52" rx="9" fill="#ffffff" stroke="#e2e2de" stroke-width="1"></rect><rect x="49.3" y="1809.3" width="524.2" height="49.5" rx="7.8" fill="none" stroke="#2f5fd0" stroke-width="2.5" clip-path="url(#abar11)"></rect><text x="64" y="1830" font-size="15" fill="#1c1c22" font-weight="600">Agents</text><text x="64" y="1848" font-size="12" fill="#6c6c73">XAgent claim → Crossplane → governed agent workload</text><rect x="586.6666666666666" y="1808" width="526.6666666666666" height="52" rx="9" fill="#ffffff" stroke="#e2e2de" stroke-width="1"></rect><rect x="588.0" y="1809.3" width="524.2" height="49.5" rx="7.8" fill="none" stroke="#1f7a49" stroke-width="2.5" clip-path="url(#abar12)"></rect><text x="602.6666666666666" y="1830" font-size="15" fill="#1c1c22" font-weight="600">Ops</text><text x="602.6666666666666" y="1848" font-size="12" fill="#6c6c73">incident → triage agent → owner-routing → pages team</text><rect x="1125.3333333333333" y="1808" width="526.6666666666666" height="52" rx="9" fill="#ffffff" stroke="#e2e2de" stroke-width="1"></rect><rect x="1126.5" y="1809.3" width="524.2" height="49.5" rx="7.8" fill="none" stroke="#2f5fd0" stroke-width="2.5" clip-path="url(#abar13)"></rect><text x="1141.3333333333333" y="1830" font-size="15" fill="#1c1c22" font-weight="600">Data plane</text><text x="1141.3333333333333" y="1848" font-size="12" fill="#6c6c73">user request → Edge/Gateway → HTTPRoute → pod</text><rect x="48" y="1872" width="526.6666666666666" height="52" rx="9" fill="#ffffff" stroke="#e2e2de" stroke-width="1"></rect><rect x="49.3" y="1873.3" width="524.2" height="49.5" rx="7.8" fill="none" stroke="#1f7a49" stroke-width="2.5" clip-path="url(#abar14)"></rect><text x="64" y="1894" font-size="15" fill="#1c1c22" font-weight="600">Telemetry</text><text x="64" y="1912" font-size="12" fill="#6c6c73">everything → the Observability band</text></svg>