<svg xml:space="preserve" xmlns="http://www.w3.org/2000/svg" viewBox="0 0 760 647" width="760" height="647" font-family="system-ui,-apple-system,&#39;Segoe UI&#39;,Roboto,Helvetica,Arial,sans-serif"><style>@media(prefers-color-scheme:dark){[fill="#f6f6f3"]{fill:#1b1b18}[stroke="#f6f6f3"]{stroke:#1b1b18}[fill="#6c6c73"]{fill:#898990}[stroke="#6c6c73"]{stroke:#898990}[fill="#1c1c22"]{fill:#dddde3}[stroke="#1c1c22"]{stroke:#dddde3}[fill="#e0f0e6"]{fill:#254d34}[stroke="#e0f0e6"]{stroke:#254d34}[fill="#f5ecd8"]{fill:#5a461a}[stroke="#f5ecd8"]{stroke:#5a461a}[fill="#d99e8e"]{fill:#dda292}[stroke="#d99e8e"]{stroke:#dda292}[fill="#9a9aa1"]{fill:#888890}[stroke="#9a9aa1"]{stroke:#888890}[fill="#e8e8e3"]{fill:#23231f}[stroke="#e8e8e3"]{stroke:#23231f}[fill="#a05a2c"]{fill:#d48754}[stroke="#a05a2c"]{stroke:#d48754}[fill="#f0f0ec"]{fill:#1f1f1b}[stroke="#f0f0ec"]{stroke:#1f1f1b}[fill="#e2e2dc"]{fill:#272722}[stroke="#e2e2dc"]{stroke:#272722}[fill="#1f7a49"]{fill:#45d487}[stroke="#1f7a49"]{stroke:#45d487}[fill="#8a6410"]{fill:#ecb02d}[stroke="#8a6410"]{stroke:#ecb02d}[fill="#b4402b"]{fill:#dc725e}[stroke="#b4402b"]{stroke:#dc725e}[fill="#2f5fd0"]{fill:#7798e3}[stroke="#2f5fd0"]{stroke:#7798e3}}</style><rect class="f_bg" x="0" y="0" width="760" height="647" fill="#f6f6f3"></rect><text class="mono f_muted" x="40" y="54" font-size="12" fill="#6c6c73" letter-spacing="1.6px"><tspan x="40">DEFENSE IN DEPTH · TWO DIMENSIONS</tspan></text><text class="f_text" x="40" y="92" font-size="28" fill="#1c1c22" font-weight="600" letter-spacing="-0.3px"><tspan x="40">Depth and time — a grid, not a line</tspan></text><text class="f_muted" x="40" y="118" font-size="15" fill="#6c6c73"><tspan x="40">The 4 C’s stack outermost to innermost (depth); each concern is also defended at three</tspan><tspan x="40" dy="20">moments (time). Every cell is an independent slice — and where they thin out is the honest part.</tspan></text><rect x="40" y="176" width="11" height="11" rx="3" class="f_builtBg" fill="#e0f0e6"></rect><text class="mono f_muted" x="58" y="186" font-size="11.5" fill="#6c6c73"><tspan x="58">built</tspan></text><rect x="120" y="176" width="11" height="11" rx="3" class="f_partBg2" fill="#f5ecd8"></rect><text class="mono f_muted" x="138" y="186" font-size="11.5" fill="#6c6c73"><tspan x="138">partial</tspan></text><rect x="206" y="176" width="11" height="11" rx="3" class="s_gapBd" fill="none" stroke="#d99e8e" stroke-width="1" stroke-dasharray="3 2"></rect><text class="mono f_muted" x="224" y="186" font-size="11.5" fill="#6c6c73"><tspan x="224">gap</tspan></text><text class="mono f_text" x="220.16666666666669" y="230" font-size="11" fill="#1c1c22" letter-spacing="0.03em" text-anchor="middle"><tspan x="220.16666666666669">SHIFT-LEFT</tspan></text><text class="f_dim" x="220.16666666666669" y="243" font-size="9.5" fill="#9a9aa1" text-anchor="middle"><tspan x="220.16666666666669">in CI, before it exists</tspan></text><text class="mono f_text" x="421.50000000000006" y="230" font-size="11" fill="#1c1c22" letter-spacing="0.03em" text-anchor="middle"><tspan x="421.50000000000006">AT ADMISSION</tspan></text><text class="f_dim" x="421.50000000000006" y="243" font-size="9.5" fill="#9a9aa1" text-anchor="middle"><tspan x="421.50000000000006">at the cluster door</tspan></text><text class="mono f_text" x="622.8333333333334" y="230" font-size="11" fill="#1c1c22" letter-spacing="0.03em" text-anchor="middle"><tspan x="622.8333333333334">AT RUNTIME</tspan></text><text class="f_dim" x="622.8333333333334" y="243" font-size="9.5" fill="#9a9aa1" text-anchor="middle"><tspan x="622.8333333333334">while running</tspan></text><line class="s_dim" x1="123" y1="216" x2="720.0000000000001" y2="216" stroke="#9a9aa1" stroke-width="1" stroke-dasharray="3 3"></line><path class="f_dim" fill="#9a9aa1" d="M720.0000000000001 216 L714.0000000000001 213 L714.0000000000001 219 Z"></path><text class="mono f_dim" x="123" y="210" font-size="10" fill="#9a9aa1"><tspan x="123">time →</tspan></text><rect x="40" y="250" width="76" height="64" rx="9" class="f_labelBg" fill="#e8e8e3"></rect><text class="mono f_cloud" x="78" y="286" font-size="12.5" fill="#a05a2c" font-weight="500" text-anchor="middle"><tspan x="78">Cloud</tspan></text><rect x="123" y="250" width="194.33333333333334" height="64" rx="9" class="f_cellBg s_cellBd" fill="#f0f0ec" stroke="#e2e2dc" stroke-width="1"></rect><rect x="131" y="259" width="178.33333333333334" height="20" rx="5" class="f_builtBg" fill="#e0f0e6"></rect><text class="mono f_builtTx" x="139" y="273" font-size="10.5" fill="#1f7a49"><tspan x="139">TFLint · tofu validate</tspan></text><rect x="324.33333333333337" y="250" width="194.33333333333334" height="64" rx="9" class="f_cellBg s_cellBd" fill="#f0f0ec" stroke="#e2e2dc" stroke-width="1"></rect><rect x="332.33333333333337" y="259" width="178.33333333333334" height="20" rx="5" class="f_builtBg" fill="#e0f0e6"></rect><text class="mono f_builtTx" x="340.33333333333337" y="273" font-size="10.5" fill="#1f7a49"><tspan x="340.33333333333337">SCPs · IAM boundary</tspan></text><rect x="332.33333333333337" y="284" width="178.33333333333334" height="20" rx="5" class="f_builtBg" fill="#e0f0e6"></rect><text class="mono f_builtTx" x="340.33333333333337" y="298" font-size="10.5" fill="#1f7a49"><tspan x="340.33333333333337">KMS encryption</tspan></text><rect x="525.6666666666667" y="250" width="194.33333333333334" height="64" rx="9" class="f_cellBg s_cellBd" fill="#f0f0ec" stroke="#e2e2dc" stroke-width="1"></rect><rect x="533.6666666666667" y="259" width="178.33333333333334" height="20" rx="5" class="f_partBg2" fill="#f5ecd8"></rect><text class="mono f_partTx" x="541.6666666666667" y="273" font-size="10.5" fill="#8a6410"><tspan x="541.6666666666667">CloudTrail</tspan></text><rect x="533.6666666666667" y="284" width="178.33333333333334" height="20" rx="5" class="s_gapBd" fill="none" stroke="#d99e8e" stroke-width="1" stroke-dasharray="4 3"></rect><text class="mono f_gapTx" x="541.6666666666667" y="298" font-size="10.5" fill="#b4402b"><tspan x="541.6666666666667">WAF · GuardDuty · CSPM</tspan></text><rect x="40" y="321" width="76" height="89" rx="9" class="f_labelBg" fill="#e8e8e3"></rect><text class="mono f_blue" x="78" y="369.5" font-size="12.5" fill="#2f5fd0" font-weight="500" text-anchor="middle"><tspan x="78">Cluster</tspan></text><rect x="123" y="321" width="194.33333333333334" height="89" rx="9" class="f_cellBg s_cellBd" fill="#f0f0ec" stroke="#e2e2dc" stroke-width="1"></rect><rect x="131" y="330" width="178.33333333333334" height="20" rx="5" class="f_builtBg" fill="#e0f0e6"></rect><text class="mono f_builtTx" x="139" y="344" font-size="10.5" fill="#1f7a49"><tspan x="139">Kyverno CLI tests</tspan></text><rect x="324.33333333333337" y="321" width="194.33333333333334" height="89" rx="9" class="f_cellBg s_cellBd" fill="#f0f0ec" stroke="#e2e2dc" stroke-width="1"></rect><rect x="332.33333333333337" y="330" width="178.33333333333334" height="20" rx="5" class="f_builtBg" fill="#e0f0e6"></rect><text class="mono f_builtTx" x="340.33333333333337" y="344" font-size="10.5" fill="#1f7a49"><tspan x="340.33333333333337">Kyverno Enforce</tspan></text><rect x="332.33333333333337" y="355" width="178.33333333333334" height="20" rx="5" class="f_builtBg" fill="#e0f0e6"></rect><text class="mono f_builtTx" x="340.33333333333337" y="369" font-size="10.5" fill="#1f7a49"><tspan x="340.33333333333337">PSA baseline</tspan></text><rect x="332.33333333333337" y="380" width="178.33333333333334" height="20" rx="5" class="f_builtBg" fill="#e0f0e6"></rect><text class="mono f_builtTx" x="340.33333333333337" y="394" font-size="10.5" fill="#1f7a49"><tspan x="340.33333333333337">cosign + SLSA verify</tspan></text><rect x="525.6666666666667" y="321" width="194.33333333333334" height="89" rx="9" class="f_cellBg s_cellBd" fill="#f0f0ec" stroke="#e2e2dc" stroke-width="1"></rect><rect x="533.6666666666667" y="330" width="178.33333333333334" height="20" rx="5" class="f_builtBg" fill="#e0f0e6"></rect><text class="mono f_builtTx" x="541.6666666666667" y="344" font-size="10.5" fill="#1f7a49"><tspan x="541.6666666666667">netpol + IMDS deny</tspan></text><rect x="533.6666666666667" y="355" width="178.33333333333334" height="20" rx="5" class="f_builtBg" fill="#e0f0e6"></rect><text class="mono f_builtTx" x="541.6666666666667" y="369" font-size="10.5" fill="#1f7a49"><tspan x="541.6666666666667">WireGuard e-w</tspan></text><rect x="533.6666666666667" y="380" width="178.33333333333334" height="20" rx="5" class="f_partBg2" fill="#f5ecd8"></rect><text class="mono f_partTx" x="541.6666666666667" y="394" font-size="10.5" fill="#8a6410"><tspan x="541.6666666666667">SPIFFE auth · Falco</tspan></text><rect x="40" y="417" width="76" height="64" rx="9" class="f_labelBg" fill="#e8e8e3"></rect><text class="mono f_blue" x="78" y="453" font-size="12.5" fill="#2f5fd0" font-weight="500" text-anchor="middle"><tspan x="78">Container</tspan></text><rect x="123" y="417" width="194.33333333333334" height="64" rx="9" class="f_cellBg s_cellBd" fill="#f0f0ec" stroke="#e2e2dc" stroke-width="1"></rect><rect x="131" y="426" width="178.33333333333334" height="20" rx="5" class="f_builtBg" fill="#e0f0e6"></rect><text class="mono f_builtTx" x="139" y="440" font-size="10.5" fill="#1f7a49"><tspan x="139">Trivy</tspan></text><rect x="131" y="451" width="178.33333333333334" height="20" rx="5" class="f_builtBg" fill="#e0f0e6"></rect><text class="mono f_builtTx" x="139" y="465" font-size="10.5" fill="#1f7a49"><tspan x="139">ECR scan-on-push</tspan></text><rect x="324.33333333333337" y="417" width="194.33333333333334" height="64" rx="9" class="f_cellBg s_cellBd" fill="#f0f0ec" stroke="#e2e2dc" stroke-width="1"></rect><rect x="332.33333333333337" y="426" width="178.33333333333334" height="20" rx="5" class="f_builtBg" fill="#e0f0e6"></rect><text class="mono f_builtTx" x="340.33333333333337" y="440" font-size="10.5" fill="#1f7a49"><tspan x="340.33333333333337">signature re-verify</tspan></text><rect x="332.33333333333337" y="451" width="178.33333333333334" height="20" rx="5" class="f_builtBg" fill="#e0f0e6"></rect><text class="mono f_builtTx" x="340.33333333333337" y="465" font-size="10.5" fill="#1f7a49"><tspan x="340.33333333333337">hardened defaults</tspan></text><rect x="525.6666666666667" y="417" width="194.33333333333334" height="64" rx="9" class="f_cellBg s_cellBd" fill="#f0f0ec" stroke="#e2e2dc" stroke-width="1"></rect><rect x="533.6666666666667" y="426" width="178.33333333333334" height="20" rx="5" class="f_builtBg" fill="#e0f0e6"></rect><text class="mono f_builtTx" x="541.6666666666667" y="440" font-size="10.5" fill="#1f7a49"><tspan x="541.6666666666667">digest immutability</tspan></text><rect x="533.6666666666667" y="451" width="178.33333333333334" height="20" rx="5" class="s_gapBd" fill="none" stroke="#d99e8e" stroke-width="1" stroke-dasharray="4 3"></rect><text class="mono f_gapTx" x="541.6666666666667" y="465" font-size="10.5" fill="#b4402b"><tspan x="541.6666666666667">block-on-CVE gate</tspan></text><rect x="40" y="488" width="76" height="89" rx="9" class="f_labelBg" fill="#e8e8e3"></rect><text class="mono f_blue" x="78" y="536.5" font-size="12.5" fill="#2f5fd0" font-weight="500" text-anchor="middle"><tspan x="78">Code</tspan></text><rect x="123" y="488" width="194.33333333333334" height="89" rx="9" class="f_cellBg s_cellBd" fill="#f0f0ec" stroke="#e2e2dc" stroke-width="1"></rect><rect x="131" y="497" width="178.33333333333334" height="20" rx="5" class="f_builtBg" fill="#e0f0e6"></rect><text class="mono f_builtTx" x="139" y="511" font-size="10.5" fill="#1f7a49"><tspan x="139">Semgrep (SAST)</tspan></text><rect x="131" y="522" width="178.33333333333334" height="20" rx="5" class="f_builtBg" fill="#e0f0e6"></rect><text class="mono f_builtTx" x="139" y="536" font-size="10.5" fill="#1f7a49"><tspan x="139">Trivy + Dependabot</tspan></text><rect x="131" y="547" width="178.33333333333334" height="20" rx="5" class="f_builtBg" fill="#e0f0e6"></rect><text class="mono f_builtTx" x="139" y="561" font-size="10.5" fill="#1f7a49"><tspan x="139">gitleaks · pinned CI</tspan></text><rect x="324.33333333333337" y="488" width="194.33333333333334" height="89" rx="9" class="f_cellBg s_cellBd" fill="#f0f0ec" stroke="#e2e2dc" stroke-width="1"></rect><rect x="332.33333333333337" y="497" width="178.33333333333334" height="20" rx="5" class="f_builtBg" fill="#e0f0e6"></rect><text class="mono f_builtTx" x="340.33333333333337" y="511" font-size="10.5" fill="#1f7a49"><tspan x="340.33333333333337">policy render checks</tspan></text><rect x="525.6666666666667" y="488" width="194.33333333333334" height="89" rx="9" class="f_cellBg s_cellBd" fill="#f0f0ec" stroke="#e2e2dc" stroke-width="1"></rect><rect x="533.6666666666667" y="497" width="178.33333333333334" height="20" rx="5" class="s_gapBd" fill="none" stroke="#d99e8e" stroke-width="1" stroke-dasharray="4 3"></rect><text class="mono f_gapTx" x="541.6666666666667" y="511" font-size="10.5" fill="#b4402b"><tspan x="541.6666666666667">DAST</tspan></text><rect x="533.6666666666667" y="522" width="178.33333333333334" height="20" rx="5" class="s_gapBd" fill="none" stroke="#d99e8e" stroke-width="1" stroke-dasharray="4 3"></rect><text class="mono f_gapTx" x="541.6666666666667" y="536" font-size="10.5" fill="#b4402b"><tspan x="541.6666666666667">app runtime (WAF)</tspan></text><text class="f_muted" x="40" y="611" font-size="13" fill="#6c6c73"><tspan x="40"><tspan class="f_gapTx mono" fill="#b4402b">LOOK DOWN THE RUNTIME COLUMN · </tspan>the at-runtime / edge moment is the thinnest — WAF,</tspan><tspan x="40" dy="18">DAST, GuardDuty, full audit are the named gaps. Missing one moment isn&#39;t fatal — that&#39;s depth.</tspan></text></svg>